<svg version="1.1" id="svg-draw" xmlns="http://www.w3.org/2000/svg" xmlns:xlink="http://www.w3.org/1999/xlink" x="0px" y="0px" width="100%" height="100%" xml:space="preserve" xmlns:svgjs="http://svgjs.com/svgjs" viewBox="0 0 670 500">
	<g id="svg-content">
		<g id="svg-logo" class="svg-element" transform="matrix(0.8060366655915165,0,0,0.8060366655915165,254.04299513880215,122.38540944507835)" style="cursor: pointer;">
<g>
	<linearGradient id="SVGID_1_" gradientUnits="userSpaceOnUse" x1="45.272" y1="86.8503" x2="155.1152" y2="86.8503">
		<stop offset="0.1933" style="stop-color:#C79F62"></stop>
		<stop offset="1" style="stop-color:#6A3906"></stop>
	</linearGradient>
	<path fill="url(#SVGID_1_)" d="M90.5,173.1c-20.7-5-34.6-26.4-31.7-48.5c1.5,1.4,4.1,3.9,4.7,4.4c2.7,2.5,2.7,2.5,2.8,5.9l0.1,1.7
		c0.4,9.4,5.5,17.2,15.6,23.8l2.1,1.3l0.3-2.4c1.4-13.1-2.8-24.2-13.1-34.9c-2.8-2.9-5.6-5.6-8.5-8.4c-2.3-2.3-4.7-4.5-6.9-6.8
		c-11.1-11.2-13.4-25-6.9-41c7-17.4,34.4-53.2,51.8-67.7c2.1,2.3,4.2,4.5,6.3,6.8c5.4,5.7,10.9,11.6,15.6,17.8
		c8.9,12,19.2,26.2,27.6,41.3c7.3,12.9,6.6,26.2-2,38.4c-0.6,0.9-1.3,1.7-2.1,2.7l-1.8-3.4c-0.4-0.9-0.8-1.7-1.1-2.3
		c-1.1-2.1-1.1-2.1,2.1-7.7c4.5-8.1,2-16.7-0.8-22.6c-9.7-19.9-23.4-38.7-43.3-59.2l-1.1-1.1l-1.1,1.2
		C83.5,28.6,66.3,48.5,55.4,72.5c-5.7,12.6-2.4,25,9.6,35.7c7.5,6.7,13.6,13.2,18.5,19.9C92.3,139.9,94.5,153.9,90.5,173.1z"></path>
	<linearGradient id="SVGID_2_" gradientUnits="userSpaceOnUse" x1="33.7037" y1="147.5053" x2="166.2963" y2="147.5053">
		<stop offset="0.1933" style="stop-color:#C79F62"></stop>
		<stop offset="1" style="stop-color:#6A3906"></stop>
	</linearGradient>
	<path fill="url(#SVGID_2_)" d="M103.8,199.4c-5.4,0-13.9-0.9-19.9-3.4c-27.6-11.5-44-31-48.9-58c-2.4-13.2-1.5-26.7,3-42.4
		c0,0,2.9,9,3.1,9.7l0.4,1.3c1.4,4.1,1.4,4.1,0.9,7.7l-0.4,3.3c-3.6,29.9,10.7,54.8,40.3,70c6.1,3.2,11.9,4.7,17.6,4.7
		c6.1,0,12.3-1.7,19-5.3c30.5-16.2,43.9-42.6,38.8-76.2c-0.3-2.1,0.5-4.7,1.2-7c0.9-2.8,1.9-5.6,3-8.3c10.3,31.9,3.7,73.1-34.4,95.1
		c-5,2.9-10.7,5.5-18,8.2C108.8,199.2,106.9,199.4,103.8,199.4z"></path>
	<linearGradient id="SVGID_3_" gradientUnits="userSpaceOnUse" x1="67.6994" y1="114.448" x2="142.0066" y2="114.448">
		<stop offset="0.1933" style="stop-color:#C79F62"></stop>
		<stop offset="1" style="stop-color:#6A3906"></stop>
	</linearGradient>
	<path fill="url(#SVGID_3_)" d="M110,173.5c-5.8-21.3,0-43.2,14.1-53.7c0.8,1.6,1.1,2.9,1.2,4.5c0.2,3.2-1,6.5-3.6,9.7
		c-5.9,7.3-6.6,16.6-6.5,24.7l0,2.2l2.1-0.9c11.8-4.8,19.1-20,16.8-34.5c-3.3-20.5-14.5-36.5-26.1-50.7c-1.3-1.6-2.7-3.1-4.4-4.9
		L99.1,65l-27.3,38.5L67.7,98c6-13,20.1-31.5,32.6-42.6l2.9,3c2.9,3,5.8,6,8.5,9.2c14.8,17.1,23.4,31.9,27.9,47.8
		c7.1,24.8-1.4,44-24.4,55.5c-1.3,0.7-2.6,1.3-3.9,1.9L110,173.5z"></path>
</g>
 </g>
		<g id="svg-name" class="svg-element" transform="matrix(0.9940120548513529,0,0,0.9940130093516119,162.57600501912162,512.3250688461927)" style="cursor: pointer;"><g transform="matrix(1,0,0,1,0,0)" fill="#000"><path d="M17.30 30.95L17.30 30.95L17.30 30.95Q17.30 29.65 18.20 28.75L18.20 28.75L18.20 28.75Q19.10 27.85 20.40 27.85L20.40 27.85L20.40 27.85Q21.70 27.85 22.60 28.75L22.60 28.75L22.60 28.75Q23.50 29.65 23.50 30.95L23.50 30.95L23.50 30.95Q23.50 32.25 22.60 33.15L22.60 33.15L22.60 33.15Q21.70 34.05 20.40 34.05L20.40 34.05L20.40 34.05Q19.10 34.05 18.20 33.15L18.20 33.15L18.20 33.15Q17.30 32.25 17.30 30.95M18.50 19.85L6.75 35.45L6.75 35.45Q6 36.35 4.90 36.35L4.90 36.35L4.90 36.35Q3.90 36.35 3.20 35.65L3.20 35.65L3.20 35.65Q2.50 34.95 2.50 33.95L2.50 33.95L2.50 33.95Q2.50 33.05 3 32.50L3 32.50L15.15 16.15L15.15 16.15Q16 15 17.40 14.27L17.40 14.27L17.40 14.27Q18.80 13.55 20.40 13.55L20.40 13.55L20.40 13.55Q21.90 13.55 23.25 14.20L23.25 14.20L23.25 14.20Q24.60 14.85 25.45 16L25.45 16L37.60 32.25L37.60 32.25Q37.90 32.60 38.10 33.02L38.10 33.02L38.10 33.02Q38.30 33.45 38.30 33.95L38.30 33.95L38.30 33.95Q38.30 34.95 37.60 35.65L37.60 35.65L37.60 35.65Q36.90 36.35 35.90 36.35L35.90 36.35L35.90 36.35Q34.70 36.35 34 35.40L34 35.40L22.35 19.85L22.35 19.85Q22 19.45 21.48 18.97L21.48 18.97L21.48 18.97Q20.95 18.50 20.40 18.50L20.40 18.50L20.40 18.50Q19.85 18.50 19.33 18.97L19.33 18.97L19.33 18.97Q18.80 19.45 18.50 19.85L18.50 19.85ZM46.85 25.45L46.85 25.45L46.85 25.45Q46.85 26.35 47.08 27.42L47.08 27.42L47.08 27.42Q47.30 28.50 47.93 29.40L47.93 29.40L47.93 29.40Q48.55 30.30 49.63 30.92L49.63 30.92L49.63 30.92Q50.70 31.55 52.45 31.55L52.45 31.55L72.35 31.55L72.35 31.55Q74.05 31.55 75.15 30.92L75.15 30.92L75.15 30.92Q76.25 30.30 76.88 29.40L76.88 29.40L76.88 29.40Q77.50 28.50 77.73 27.42L77.73 27.42L77.73 27.42Q77.95 26.35 77.95 25.45L77.95 25.45L77.95 17L77.95 17Q77.95 16 78.65 15.30L78.65 15.30L78.65 15.30Q79.35 14.60 80.35 14.60L80.35 14.60L80.35 14.60Q81.35 14.60 82.05 15.30L82.05 15.30L82.05 15.30Q82.75 16 82.75 17L82.75 17L82.75 25.45L82.75 25.45Q82.75 27.35 82.13 29.27L82.13 29.27L82.13 29.27Q81.50 31.20 80.30 32.77L80.30 32.77L80.30 32.77Q79.10 34.35 77.40 35.35L77.40 35.35L77.40 35.35Q75.70 36.35 73.55 36.35L73.55 36.35L50.75 36.35L50.75 36.35Q48.70 36.25 47.10 35.23L47.10 35.23L47.10 35.23Q45.50 34.20 44.38 32.65L44.38 32.65L44.38 32.65Q43.25 31.10 42.65 29.20L42.65 29.20L42.65 29.20Q42.05 27.30 42.05 25.45L42.05 25.45L42.05 17L42.05 17Q42.05 16 42.75 15.30L42.75 15.30L42.75 15.30Q43.45 14.60 44.45 14.60L44.45 14.60L44.45 14.60Q45.45 14.60 46.15 15.30L46.15 15.30L46.15 15.30Q46.85 16 46.85 17L46.85 17L46.85 25.45ZM124.55 14.55L124.55 14.55L124.55 14.55Q125.55 14.55 126.25 15.25L126.25 15.25L126.25 15.25Q126.95 15.95 126.95 16.95L126.95 16.95L126.95 16.95Q126.95 17.95 126.25 18.65L126.25 18.65L126.25 18.65Q125.55 19.35 124.55 19.35L124.55 19.35L109.75 19.35L109.75 33.95L109.75 33.95Q109.75 34.95 109.05 35.65L109.05 35.65L109.05 35.65Q108.35 36.35 107.35 36.35L107.35 36.35L107.35 36.35Q106.35 36.35 105.65 35.65L105.65 35.65L105.65 35.65Q104.95 34.95 104.95 33.95L104.95 33.95L104.95 19.35L89.95 19.35L89.95 19.35Q89.05 19.25 88.40 18.57L88.40 18.57L88.40 18.57Q87.75 17.90 87.75 16.95L87.75 16.95L87.75 16.95Q87.75 15.95 88.45 15.25L88.45 15.25L88.45 15.25Q89.15 14.55 90.15 14.55L90.15 14.55L124.55 14.55ZM136.75 25.45L136.75 25.45L136.75 25.45Q136.75 26.35 136.97 27.42L136.97 27.42L136.97 27.42Q137.20 28.50 137.82 29.40L137.82 29.40L137.82 29.40Q138.45 30.30 139.52 30.92L139.52 30.92L139.52 30.92Q140.60 31.55 142.35 31.55L142.35 31.55L162.25 31.55L162.25 31.55Q163.95 31.55 165.05 30.92L165.05 30.92L165.05 30.92Q166.15 30.30 166.77 29.40L166.77 29.40L166.77 29.40Q167.40 28.50 167.63 27.42L167.63 27.42L167.63 27.42Q167.85 26.35 167.85 25.45L167.85 25.45L167.85 17L167.85 17Q167.85 16 168.55 15.30L168.55 15.30L168.55 15.30Q169.25 14.60 170.25 14.60L170.25 14.60L170.25 14.60Q171.25 14.60 171.95 15.30L171.95 15.30L171.95 15.30Q172.65 16 172.65 17L172.65 17L172.65 25.45L172.65 25.45Q172.65 27.35 172.02 29.27L172.02 29.27L172.02 29.27Q171.40 31.20 170.20 32.77L170.20 32.77L170.20 32.77Q169 34.35 167.30 35.35L167.30 35.35L167.30 35.35Q165.60 36.35 163.45 36.35L163.45 36.35L140.65 36.35L140.65 36.35Q138.60 36.25 137 35.23L137 35.23L137 35.23Q135.40 34.20 134.27 32.65L134.27 32.65L134.27 32.65Q133.15 31.10 132.55 29.20L132.55 29.20L132.55 29.20Q131.95 27.30 131.95 25.45L131.95 25.45L131.95 17L131.95 17Q131.95 16 132.65 15.30L132.65 15.30L132.65 15.30Q133.35 14.60 134.35 14.60L134.35 14.60L134.35 14.60Q135.35 14.60 136.05 15.30L136.05 15.30L136.05 15.30Q136.75 16 136.75 17L136.75 17L136.75 25.45ZM219.85 19.35L219.85 33.95L219.85 33.95Q219.85 34.95 219.15 35.65L219.15 35.65L219.15 35.65Q218.45 36.35 217.45 36.35L217.45 36.35L217.45 36.35Q216.45 36.35 215.75 35.65L215.75 35.65L215.75 35.65Q215.05 34.95 215.05 33.95L215.05 33.95L215.05 23.05L215.05 23.05Q215.05 21 214.80 21L214.80 21L214.80 21Q214.60 21 213.40 22.35L213.40 22.35L202.40 34.85L202.40 34.85Q201.75 35.60 200.80 35.98L200.80 35.98L200.80 35.98Q199.85 36.35 198.75 36.35L198.75 36.35L198.75 36.35Q197.65 36.35 196.70 35.98L196.70 35.98L196.70 35.98Q195.75 35.60 195.10 34.85L195.10 34.85L184.10 22.35L184.10 22.35Q182.95 21 182.70 21L182.70 21L182.70 21Q182.45 21 182.45 23.05L182.45 23.05L182.45 33.95L182.45 33.95Q182.45 34.95 181.75 35.65L181.75 35.65L181.75 35.65Q181.05 36.35 180.05 36.35L180.05 36.35L180.05 36.35Q179.05 36.35 178.35 35.65L178.35 35.65L178.35 35.65Q177.65 34.95 177.65 33.95L177.65 33.95L177.65 19.35L177.65 19.35Q177.65 17.35 178.80 15.95L178.80 15.95L178.80 15.95Q179.95 14.55 181.95 14.55L181.95 14.55L181.95 14.55Q183.15 14.55 184.10 15.15L184.10 15.15L184.10 15.15Q185.05 15.75 185.85 16.60L185.85 16.60L197.35 29.70L197.35 29.70Q197.60 29.95 197.97 30.23L197.97 30.23L197.97 30.23Q198.35 30.50 198.75 30.50L198.75 30.50L198.75 30.50Q199.15 30.50 199.52 30.23L199.52 30.23L199.52 30.23Q199.90 29.95 200.15 29.70L200.15 29.70L211.60 16.60L211.65 16.60L211.65 16.60Q212.35 15.65 213.35 15.10L213.35 15.10L213.35 15.10Q214.35 14.55 215.55 14.55L215.55 14.55L215.55 14.55Q217.55 14.55 218.70 15.95L218.70 15.95L218.70 15.95Q219.85 17.35 219.85 19.35L219.85 19.35ZM258.90 16.95L258.90 16.95L258.90 16.95Q258.90 15.95 259.60 15.25L259.60 15.25L259.60 15.25Q260.30 14.55 261.30 14.55L261.30 14.55L261.30 14.55Q262.30 14.55 263 15.25L263 15.25L263 15.25Q263.70 15.95 263.70 16.95L263.70 16.95L263.70 31.50L263.70 31.50Q263.70 33.55 262.32 34.95L262.32 34.95L262.32 34.95Q260.95 36.35 258.90 36.35L258.90 36.35L258.90 36.35Q258.20 36.35 257.52 36.15L257.52 36.15L257.52 36.15Q256.85 35.95 256.30 35.60L256.30 35.60L233.40 21.60L233.40 21.60Q232.45 21.05 231.82 20.72L231.82 20.72L231.82 20.72Q231.20 20.40 230.80 20.40L230.80 20.40L230.80 20.40Q230.05 20.40 229.85 21.35L229.85 21.35L229.85 21.35Q229.65 22.30 229.65 24.10L229.65 24.10L229.65 33.95L229.65 33.95Q229.65 34.95 228.95 35.65L228.95 35.65L228.95 35.65Q228.25 36.35 227.25 36.35L227.25 36.35L227.25 36.35Q226.25 36.35 225.55 35.65L225.55 35.65L225.55 35.65Q224.85 34.95 224.85 33.95L224.85 33.95L224.85 19.40L224.85 19.40Q224.85 17.35 226.22 15.95L226.22 15.95L226.22 15.95Q227.60 14.55 229.65 14.55L229.65 14.55L229.65 14.55Q230.35 14.55 231.02 14.75L231.02 14.75L231.02 14.75Q231.70 14.95 232.25 15.30L232.25 15.30L255.15 29.30L255.15 29.30Q256.10 29.85 256.72 30.17L256.72 30.17L256.72 30.17Q257.35 30.50 257.75 30.50L257.75 30.50L257.75 30.50Q258.50 30.50 258.70 29.55L258.70 29.55L258.70 29.55Q258.90 28.60 258.90 26.80L258.90 26.80L258.90 16.95ZM285.90 23.05L285.90 23.05L285.90 23.05Q286.90 23.05 287.60 23.75L287.60 23.75L287.60 23.75Q288.30 24.45 288.30 25.45L288.30 25.45L288.30 25.45Q288.30 26.45 287.60 27.15L287.60 27.15L287.60 27.15Q286.90 27.85 285.90 27.85L285.90 27.85L270.90 27.85L270.90 27.85Q270 27.75 269.35 27.07L269.35 27.07L269.35 27.07Q268.70 26.40 268.70 25.45L268.70 25.45L268.70 25.45Q268.70 24.45 269.40 23.75L269.40 23.75L269.40 23.75Q270.10 23.05 271.10 23.05L271.10 23.05L285.90 23.05ZM332.45 33.95L332.45 33.95L332.45 33.95Q332.45 34.95 331.75 35.65L331.75 35.65L331.75 35.65Q331.05 36.35 330.05 36.35L330.05 36.35L330.05 36.35Q329.05 36.35 328.35 35.65L328.35 35.65L328.35 35.65Q327.65 34.95 327.65 33.95L327.65 33.95L327.65 27.85L298.10 27.85L298.10 33.95L298.10 33.95Q298.10 34.95 297.40 35.65L297.40 35.65L297.40 35.65Q296.70 36.35 295.70 36.35L295.70 36.35L295.70 36.35Q294.70 36.35 294 35.65L294 35.65L294 35.65Q293.30 34.95 293.30 33.95L293.30 33.95L293.30 16.95L293.30 16.95Q293.30 15.95 294 15.25L294 15.25L294 15.25Q294.70 14.55 295.70 14.55L295.70 14.55L295.70 14.55Q296.70 14.55 297.40 15.25L297.40 15.25L297.40 15.25Q298.10 15.95 298.10 16.95L298.10 16.95L298.10 23.05L327.65 23.05L327.65 16.95L327.65 16.95Q327.65 15.95 328.35 15.25L328.35 15.25L328.35 15.25Q329.05 14.55 330.05 14.55L330.05 14.55L330.05 14.55Q331.05 14.55 331.75 15.25L331.75 15.25L331.75 15.25Q332.45 15.95 332.45 16.95L332.45 16.95L332.45 33.95Z"></path></g></g>
		<g id="svg-slogan" class="svg-element" transform="matrix(1,0,0,1,334.5,356.5)" style="cursor: pointer;"></g>
		<g id="svg-atext" class="svg-element" transform="matrix(1,0,0,1,334.5,249.5)" style="cursor: pointer;"></g>
	</g>
<defs id="SvgjsDefs1324"></defs><g id="svg-ghost" transform="matrix(1,0,0,1,0,0)"><rect id="svg-mask" width="327.3183288574219" height="22.6181640625" transform="matrix(1,0,0,1,164.90090942382812,524.7423706054688)" fill-opacity="0" stroke="#4f80ff" stroke-width="1" stroke-dasharray="8,4" style="cursor: move;"></rect><g id="svg-resize-ctrl"><rect id="svg-resize-nw" width="8" height="8" fill="#4f80ff" transform="matrix(1,0,0,1,160.7410888671875,519.69287109375)" class="svg-resize-ctrl-block" style="cursor: nw-resize;"></rect><rect id="svg-resize-n" width="8" height="8" fill="#4f80ff" transform="matrix(1,0,0,1,160.7410888671875,519.69287109375)" class="svg-resize-ctrl-block" style="cursor: n-resize;" x="163.33184814453125" y="0"></rect><rect id="svg-resize-ne" width="8" height="8" fill="#4f80ff" transform="matrix(1,0,0,1,160.7410888671875,519.69287109375)" class="svg-resize-ctrl-block" style="cursor: ne-resize;" x="326.6636962890625" y="0"></rect><rect id="svg-resize-w" width="8" height="8" fill="#4f80ff" transform="matrix(1,0,0,1,160.7410888671875,519.69287109375)" class="svg-resize-ctrl-block" style="cursor: w-resize;" x="0" y="11.286468505859375"></rect><rect id="svg-resize-sw" width="8" height="8" fill="#4f80ff" transform="matrix(1,0,0,1,160.7410888671875,519.69287109375)" class="svg-resize-ctrl-block" style="cursor: sw-resize;" x="0" y="22.57293701171875"></rect><rect id="svg-resize-s" width="8" height="8" fill="#4f80ff" transform="matrix(1,0,0,1,160.7410888671875,519.69287109375)" class="svg-resize-ctrl-block" style="cursor: s-resize;" x="163.33184814453125" y="22.57293701171875"></rect><rect id="svg-resize-se" width="8" height="8" fill="#4f80ff" transform="matrix(1,0,0,1,160.7410888671875,519.69287109375)" class="svg-resize-ctrl-block" style="cursor: se-resize;" x="326.6636962890625" y="22.57293701171875"></rect><rect id="svg-resize-e" width="8" height="8" fill="#4f80ff" transform="matrix(1,0,0,1,160.7410888671875,519.69287109375)" class="svg-resize-ctrl-block" style="cursor: e-resize;" x="326.6636962890625" y="11.286468505859375"></rect></g></g></svg>